<?xml version="1.0" standalone="no"?>
<svg width="846" height="576" viewBox="0 0 846 576"
  xml:space="preserve"
  version="1.1"
  xmlns="http://www.w3.org/2000/svg">

<title>SVG graphic of net "Z:\home\ralmond\Projects\PP-EA\nets\PP_OrangeNodes_6.dne" generated by AlmondR at FloridaStateU using Netica 5.05 on Aug 13, 2020 at 12:09:36.</title>

<polygon points="330.49,153.824 328.328,146.122 340,147 " fill="#000000" stroke="none"/>
<polyline points="169,195 330,150 " stroke="#000000" stroke-width="1" fill="none"/>
<polygon points="401.749,226.226 402.305,218.245 413,223 " fill="#000000" stroke="none"/>
<polyline points="138,204 403,222 " stroke="#000000" stroke-width="1" fill="none"/>
<polygon points="452.091,213.757 457.365,207.741 463,218 " fill="#000000" stroke="none"/>
<polyline points="372,138 455,211 " stroke="#000000" stroke-width="1" fill="none"/>
<polygon points="608.335,81.6024 606.352,73.8522 618,75 " fill="#000000" stroke="none"/>
<polyline points="372,138 608,78 " stroke="#000000" stroke-width="1" fill="none"/>
<polygon points="589,142 589,134 600,138 " fill="#000000" stroke="none"/>
<polyline points="372,138 590,138 " stroke="#000000" stroke-width="1" fill="none"/>
<polygon points="593.502,178.189 594.781,170.292 605,176 " fill="#000000" stroke="none"/>
<polyline points="372,138 595,174 " stroke="#000000" stroke-width="1" fill="none"/>
<polygon points="597.896,234.701 598.112,226.704 609,231 " fill="#000000" stroke="none"/>
<polyline points="474,228 599,231 " stroke="#000000" stroke-width="1" fill="none"/>
<polygon points="700,254 692,254 696,243 " fill="#000000" stroke="none"/>
<polyline points="696,294 696,254 " stroke="#000000" stroke-width="1" fill="none"/>
<polygon points="653.32,284.757 655.562,277.078 665,284 " fill="#000000" stroke="none"/>
<polyline points="474,228 655,281 " stroke="#000000" stroke-width="1" fill="none"/>
<polygon points="444.297,325.801 447.159,318.33 456,326 " fill="#000000" stroke="none"/>
<polyline points="138,204 446,322 " stroke="#000000" stroke-width="1" fill="none"/>
<polygon points="466.176,318.31 473.177,314.438 475,326 " fill="#000000" stroke="none"/>
<polyline points="372,138 470,317 " stroke="#000000" stroke-width="1" fill="none"/>
<polygon points="584.746,346.216 585.309,338.235 596,343 " fill="#000000" stroke="none"/>
<polyline points="511,337 586,342 " stroke="#000000" stroke-width="1" fill="none"/>
<polygon points="633.298,392.266 635.861,384.687 645,392 " fill="#000000" stroke="none"/>
<polyline points="480,336 635,389 " stroke="#000000" stroke-width="1" fill="none"/>
<polygon points="415.943,436.16 420.992,429.955 427,440 " fill="#000000" stroke="none"/>
<polyline points="148,213 419,433 " stroke="#000000" stroke-width="1" fill="none"/>
<polygon points="429.777,430.087 437.598,428.405 436,440 " fill="#000000" stroke="none"/>
<polyline points="372,138 434,430 " stroke="#000000" stroke-width="1" fill="none"/>
<polygon points="601.893,457.693 602.115,449.696 613,454 " fill="#000000" stroke="none"/>
<polyline points="438,450 603,454 " stroke="#000000" stroke-width="1" fill="none"/>
<polygon points="609.332,500.926 611.463,493.215 621,500 " fill="#000000" stroke="none"/>
<polyline points="438,450 611,497 " stroke="#000000" stroke-width="1" fill="none"/>
<g id="Physics">
<rect x="64" y="195" width="148" height="18" rx="9" ry="9" fill="#f8eed2" stroke-width="0"/>
<rect x="64" y="195" width="148" height="18" rx="9" ry="9" fill-opacity="0" stroke="#000000" stroke-width="1"/>
<text x="75" y="208" font-family="Arial" font-size="11.25">Physics Understanding</text>
</g>
<g id="ForceAndMotion">
<rect x="314" y="129" width="117" height="18" rx="9" ry="9" fill="#ff8080" stroke-width="0"/>
<rect x="314" y="129" width="117" height="18" rx="9" ry="9" fill-opacity="0" stroke="#000000" stroke-width="1"/>
<text x="325" y="142" font-family="Arial" font-size="11.25">Force and Motion</text>
</g>
<g id="LinearMomentum">
<rect x="414" y="219" width="121" height="18" rx="9" ry="9" fill="#ff8080" stroke-width="0"/>
<rect x="414" y="219" width="121" height="18" rx="9" ry="9" fill-opacity="0" stroke="#000000" stroke-width="1"/>
<text x="425" y="232" font-family="Arial" font-size="11.25">Linear Momentum</text>
</g>
<g id="NFL">
<rect x="592" y="57" width="124" height="18" rx="9" ry="9" fill="#ff8000" stroke-width="0"/>
<rect x="592" y="57" width="124" height="18" rx="9" ry="9" fill-opacity="0" stroke="#000000" stroke-width="1"/>
<text x="603" y="70" font-family="Arial" font-size="11.25">Newton's First Law</text>
</g>
<g id="NSL">
<rect x="601" y="129" width="143" height="18" rx="9" ry="9" fill="#ff8000" stroke-width="0"/>
<rect x="601" y="129" width="143" height="18" rx="9" ry="9" fill-opacity="0" stroke="#000000" stroke-width="1"/>
<text x="612" y="142" font-family="Arial" font-size="11.25">Newton's Second Law</text>
</g>
<g id="NTL">
<rect x="596" y="177" width="129" height="18" rx="9" ry="9" fill="#ff8000" stroke-width="0"/>
<rect x="596" y="177" width="129" height="18" rx="9" ry="9" fill-opacity="0" stroke="#000000" stroke-width="1"/>
<text x="607" y="190" font-family="Arial" font-size="11.25">Newton's Third Law</text>
</g>
<g id="ConOfMom">
<rect x="610" y="225" width="172" height="18" rx="9" ry="9" fill="#ff8000" stroke-width="0"/>
<rect x="610" y="225" width="172" height="18" rx="9" ry="9" fill-opacity="0" stroke="#000000" stroke-width="1"/>
<text x="621" y="238" font-family="Arial" font-size="11.25">Conservation of momentum</text>
</g>
<g id="POfMom">
<rect x="619" y="285" width="155" height="18" rx="9" ry="9" fill="#ff8000" stroke-width="0"/>
<rect x="619" y="285" width="155" height="18" rx="9" ry="9" fill-opacity="0" stroke="#000000" stroke-width="1"/>
<text x="630" y="298" font-family="Arial" font-size="11.25">Properties of momentum</text>
</g>
<g id="Energy">
<rect x="450" y="327" width="61" height="18" rx="9" ry="9" fill="#ff8080" stroke-width="0"/>
<rect x="450" y="327" width="61" height="18" rx="9" ry="9" fill-opacity="0" stroke="#000000" stroke-width="1"/>
<text x="461" y="340" font-family="Arial" font-size="11.25">Energy</text>
</g>
<g id="EnergyDissipate">
<rect x="597" y="339" width="138" height="18" rx="9" ry="9" fill="#ff8000" stroke-width="0"/>
<rect x="597" y="339" width="138" height="18" rx="9" ry="9" fill-opacity="0" stroke="#000000" stroke-width="1"/>
<text x="608" y="352" font-family="Arial" font-size="11.25">Energy can Dissipate</text>
</g>
<g id="EnergyTransfer">
<rect x="606" y="393" width="132" height="18" rx="9" ry="9" fill="#ff8000" stroke-width="0"/>
<rect x="606" y="393" width="132" height="18" rx="9" ry="9" fill-opacity="0" stroke="#000000" stroke-width="1"/>
<text x="617" y="406" font-family="Arial" font-size="11.25">Energy can Transfer</text>
</g>
<g id="Torque">
<rect x="408" y="441" width="61" height="18" rx="9" ry="9" fill="#ff8080" stroke-width="0"/>
<rect x="408" y="441" width="61" height="18" rx="9" ry="9" fill-opacity="0" stroke="#000000" stroke-width="1"/>
<text x="419" y="454" font-family="Arial" font-size="11.25">Torque</text>
</g>
<g id="StaticEquilibrium">
<rect x="614" y="447" width="117" height="18" rx="9" ry="9" fill="#ff8000" stroke-width="0"/>
<rect x="614" y="447" width="117" height="18" rx="9" ry="9" fill-opacity="0" stroke="#000000" stroke-width="1"/>
<text x="625" y="460" font-family="Arial" font-size="11.25">Static Equilibrium</text>
</g>
<g id="PropertiesofTorque">
<rect x="588" y="501" width="133" height="18" rx="9" ry="9" fill="#ff8000" stroke-width="0"/>
<rect x="588" y="501" width="133" height="18" rx="9" ry="9" fill-opacity="0" stroke="#000000" stroke-width="1"/>
<text x="599" y="514" font-family="Arial" font-size="11.25">Properties of Torque</text>
</g>

</svg>

